<svg width="91" height="21" viewBox="0 0 91 21" fill="none" xmlns="http://www.w3.org/2000/svg">
<path d="M75.4531 2.15527C75.4531 2.38314 75.3962 2.611 75.2822 2.83887C75.0055 3.39225 74.5579 3.66895 73.9395 3.66895C73.7116 3.66895 73.4837 3.62012 73.2559 3.52246C72.6862 3.24577 72.4014 2.79004 72.4014 2.15527C72.4014 1.91113 72.4583 1.67513 72.5723 1.44727C72.8652 0.89388 73.321 0.617188 73.9395 0.617188C74.1673 0.617188 74.4033 0.674154 74.6475 0.788086C75.1846 1.08105 75.4531 1.53678 75.4531 2.15527ZM71.1318 5.57324H75.2578V15.8271C75.2578 16.9339 75.0951 17.8779 74.7695 18.6592C74.1673 20.0101 73.1501 20.6855 71.7178 20.6855C71.2295 20.6855 70.7819 20.596 70.375 20.417C69.6589 20.0915 69.3008 19.6195 69.3008 19.001C69.3008 18.9196 69.3089 18.8301 69.3252 18.7324C69.4554 18.2604 69.7891 18.0244 70.3262 18.0244C70.6517 18.0244 70.904 18.1302 71.083 18.3418C71.1807 18.4557 71.3027 18.8057 71.4492 19.3916C71.5632 19.8311 71.7829 20.0508 72.1084 20.0508C72.6618 20.0345 72.9466 19.4079 72.9629 18.1709C72.9629 17.9756 72.9548 17.6012 72.9385 17.0479C72.9222 16.2666 72.9141 15.6725 72.9141 15.2656V6.18359H71.1318V5.57324Z" fill="#FEF5E4"/>
<path fill-rule="evenodd" clip-rule="evenodd" d="M72.7946 1.56165C72.6981 1.75553 72.6514 1.95255 72.6514 2.15527C72.6514 2.4344 72.7136 2.65922 72.827 2.84064C72.9396 3.02074 73.1124 3.17386 73.3598 3.29499C73.5574 3.37892 73.7501 3.41895 73.9395 3.41895C74.2105 3.41895 74.4297 3.3587 74.6076 3.24878C74.7854 3.13885 74.9373 2.96964 75.0586 2.72706C75.1573 2.52977 75.2031 2.33995 75.2031 2.15527C75.2031 1.88303 75.1444 1.65985 75.0363 1.47653C74.9294 1.29514 74.7662 1.13892 74.5346 1.01132C74.3203 0.912353 74.1227 0.867188 73.9395 0.867188C73.6685 0.867188 73.4464 0.92739 73.2635 1.0384C73.0812 1.14913 72.9234 1.31919 72.7946 1.56165ZM73.004 0.61101C73.2769 0.445332 73.5919 0.367188 73.9395 0.367188C74.2099 0.367188 74.4819 0.434947 74.7532 0.56154L74.7603 0.564857L74.7672 0.568612C75.0691 0.733293 75.3065 0.950135 75.4671 1.22269C75.6276 1.49509 75.7031 1.80903 75.7031 2.15527C75.7031 2.42633 75.6351 2.69223 75.5058 2.95067C75.3504 3.26148 75.1402 3.50731 74.8705 3.67407C74.6007 3.84084 74.2869 3.91895 73.9395 3.91895C73.6749 3.91895 73.4136 3.86206 73.1574 3.75225L73.1465 3.74759C72.8271 3.59243 72.5745 3.37999 72.403 3.10564C72.2315 2.83134 72.1514 2.51091 72.1514 2.15527C72.1514 1.87062 72.2181 1.59648 72.3487 1.33546L72.3513 1.33026C72.5151 1.02072 72.7313 0.776586 73.004 0.61101ZM70.8818 5.32324H75.5078V15.8271C75.5078 16.9573 75.3418 17.9358 75.0003 18.7553L74.9979 18.761C74.6816 19.4706 74.249 20.0182 73.6932 20.3872C73.1369 20.7566 72.4744 20.9355 71.7178 20.9355C71.1983 20.9355 70.7159 20.8401 70.2743 20.6458L70.2715 20.6446C69.8876 20.4701 69.5811 20.248 69.3702 19.9699C69.1566 19.6885 69.0508 19.3622 69.0508 19.001C69.0508 18.9033 69.0605 18.7998 69.0786 18.6913L69.0807 18.6785L69.0842 18.6659C69.1615 18.3857 69.3059 18.1549 69.5287 17.9973C69.7493 17.8413 70.022 17.7744 70.3262 17.7744C70.711 17.7744 71.0388 17.9026 71.2739 18.1803C71.3564 18.2772 71.4236 18.4346 71.4839 18.6074C71.5484 18.7922 71.6175 19.034 71.6915 19.3299C71.6916 19.3303 71.6917 19.3306 71.6918 19.331L71.4492 19.3916L71.6912 19.3289C71.6913 19.3292 71.6914 19.3296 71.6915 19.3299C71.7421 19.5245 71.8093 19.6423 71.8762 19.7092C71.9361 19.769 72.0067 19.8 72.1047 19.8008C72.1035 19.8008 72.1023 19.8009 72.101 19.8009L72.1084 20.0508V19.8008C72.1072 19.8008 72.106 19.8008 72.1047 19.8008C72.2595 19.795 72.3959 19.7151 72.5095 19.4652C72.6303 19.1994 72.7048 18.7755 72.7129 18.1693C72.7129 18.1698 72.7129 18.1704 72.7129 18.1709H72.9629L72.7129 18.1676C72.7129 18.1682 72.7129 18.1687 72.7129 18.1693C72.7128 17.9777 72.7048 17.6075 72.6886 17.0552L72.6885 17.0531C72.6722 16.2713 72.6641 15.6752 72.6641 15.2656V6.43359H72.9141V6.18359H72.6641V6.43359H70.8818V5.32324ZM71.3818 5.82324V5.93359H73.1641V15.2656C73.1641 15.6697 73.1721 16.2613 73.1884 17.0416C73.2046 17.5939 73.2129 17.9715 73.2129 18.1709V18.1742C73.2046 18.804 73.1286 19.3114 72.9647 19.6721C72.7943 20.0468 72.5128 20.289 72.1157 20.3007L72.1084 20.3009C71.8828 20.3009 71.6819 20.2219 71.5227 20.0628C71.37 19.9101 71.2705 19.6986 71.2072 19.4543L71.2067 19.4522C71.1343 19.1627 71.0692 18.9369 71.0118 18.772C70.9502 18.5956 70.9079 18.5216 70.8932 18.5045L70.8922 18.5033C70.7691 18.3578 70.5924 18.2744 70.3262 18.2744C70.0932 18.2744 69.9306 18.3255 69.8175 18.4055C69.709 18.4822 69.6229 18.6018 69.5697 18.7866C69.5567 18.868 69.5508 18.9392 69.5508 19.001C69.5508 19.2582 69.624 19.4772 69.7685 19.6678C69.9154 19.8614 70.1456 20.0379 70.4771 20.1888C70.8489 20.3521 71.2613 20.4355 71.7178 20.4355C72.3934 20.4355 72.9557 20.2768 73.4166 19.9707C73.8774 19.6647 74.2542 19.2001 74.5399 18.5602C74.8487 17.8177 75.0078 16.9092 75.0078 15.8271V5.82324H71.3818Z" fill="#FEF5E4"/>
<path d="M67.9111 16.2432C66.6904 16.2269 65.958 15.4945 65.7139 14.0459C65.5837 14.3714 65.3965 14.6807 65.1523 14.9736C64.4036 15.82 63.4108 16.2432 62.1738 16.2432C61.6693 16.2432 61.2054 16.1618 60.7822 15.999C59.6592 15.5596 59.0977 14.6888 59.0977 13.3867C59.0977 13.1426 59.1221 12.9066 59.1709 12.6787C59.5778 10.9535 61.7344 10.0664 65.6406 10.0176V8.45508C65.6243 6.77865 64.957 5.92415 63.6387 5.8916C63.3132 5.8916 63.0365 5.94857 62.8086 6.0625C62.4993 6.24154 62.2389 6.65658 62.0273 7.30762C61.9785 7.47038 61.9378 7.59245 61.9053 7.67383C61.71 8.21094 61.36 8.47949 60.8555 8.47949C60.7253 8.47949 60.5951 8.46322 60.4648 8.43066C59.9766 8.28418 59.7324 7.95052 59.7324 7.42969C59.7324 7.15299 59.8219 6.8763 60.001 6.59961C60.6032 5.7207 61.889 5.28125 63.8584 5.28125C66.5765 5.29753 67.9518 6.55892 67.9844 9.06543V14.1924C68.0007 14.9899 68.2041 15.4049 68.5947 15.4375C69.0993 15.4212 69.4085 14.8353 69.5225 13.6797L70.1572 13.7041C70.141 14.0785 70.0921 14.4121 70.0107 14.7051C69.7503 15.7305 69.0505 16.2432 67.9111 16.2432ZM63.1748 15.2422C63.4189 15.2422 63.6712 15.1852 63.9316 15.0713C64.7943 14.6969 65.3639 13.9401 65.6406 12.8008V10.6768C64.6803 10.693 63.8991 10.7744 63.2969 10.9209C62.125 11.2139 61.5391 11.9137 61.5391 13.0205C61.5391 13.2484 61.5553 13.46 61.5879 13.6553C61.7507 14.7132 62.2796 15.2422 63.1748 15.2422Z" fill="#FEF5E4"/>
<path fill-rule="evenodd" clip-rule="evenodd" d="M60.2091 6.7382C60.0524 6.98124 59.9824 7.21058 59.9824 7.42969C59.9824 7.65094 60.0339 7.80895 60.1173 7.92293C60.1996 8.03538 60.3299 8.12819 60.5311 8.18953C60.6402 8.21634 60.7482 8.22949 60.8555 8.22949C61.061 8.22949 61.219 8.1758 61.3441 8.07975C61.4717 7.98188 61.5842 7.82524 61.6703 7.58839L61.673 7.58093C61.7014 7.51015 61.7396 7.39671 61.7879 7.23578L61.7895 7.23033C62.0049 6.56754 62.2896 6.0741 62.6833 5.84614L62.69 5.84231L62.6968 5.83889C62.9676 5.70347 63.2848 5.6416 63.6387 5.6416H63.6448C64.361 5.65928 64.9353 5.90406 65.325 6.40301C65.7065 6.89151 65.8822 7.58775 65.8906 8.45265L65.8906 8.45508L65.8906 10.2645L65.6437 10.2676C63.7038 10.2918 62.2245 10.5246 61.1886 10.9507C60.1601 11.3737 59.5948 11.9743 59.4148 12.7336C59.3702 12.9427 59.3477 13.1603 59.3477 13.3867C59.3477 14.002 59.4801 14.4951 59.7289 14.8809C59.9766 15.265 60.3521 15.5621 60.8727 15.766C61.264 15.9164 61.6968 15.9932 62.1738 15.9932C63.3454 15.9932 64.2665 15.5962 64.9627 14.8107C65.1903 14.537 65.3625 14.2511 65.4817 13.9531L65.5039 13.8977C65.1659 14.5465 64.6772 15.0203 64.0312 15.3006C63.7445 15.4259 63.4584 15.4922 63.1748 15.4922C62.6749 15.4922 62.2503 15.3426 61.9299 15.0222C61.615 14.7073 61.4272 14.2538 61.341 13.6948C61.3061 13.4845 61.2891 13.2595 61.2891 13.0205C61.2891 12.4214 61.4486 11.909 61.7868 11.505C62.1232 11.1033 62.6155 10.8336 63.2362 10.6784L63.2378 10.678C63.8649 10.5254 64.6665 10.4432 65.6364 10.4268L65.8906 10.4225V12.8307L65.8836 12.8598C65.8609 12.9532 65.8362 13.0444 65.8096 13.1334L65.8124 13.1264L65.9604 14.0043C66.0773 14.6981 66.3061 15.1879 66.6231 15.5049C66.9348 15.8166 67.356 15.9854 67.9128 15.9932C68.4451 15.9929 68.8477 15.8731 69.1428 15.657C69.4362 15.442 69.6493 15.1127 69.7684 14.6435L69.7698 14.6382C69.827 14.4321 69.8678 14.201 69.8909 13.944L69.7446 13.9384C69.682 14.42 69.5791 14.8127 69.4262 15.1025C69.2447 15.4465 68.973 15.6754 68.6028 15.6874L68.5884 15.6878L68.574 15.6866C68.2739 15.6616 68.0569 15.4816 67.9247 15.2118C67.7993 14.956 67.7428 14.6099 67.7344 14.1975L67.7343 14.1924L67.7344 9.06708C67.7184 7.85897 67.3804 6.99324 66.7595 6.42375C66.1348 5.85076 65.1822 5.5393 63.8576 5.53125C61.9064 5.53136 60.7374 5.97017 60.2091 6.7382ZM59.7947 6.4583C60.4717 5.4703 61.8736 5.03125 63.8584 5.03125H63.8599C65.2531 5.03959 66.347 5.36696 67.0974 6.05526C67.8516 6.74691 68.2175 7.76462 68.2344 9.06218L68.2344 9.06543L68.2344 14.1898C68.2424 14.5735 68.2958 14.8329 68.3737 14.9918C68.4411 15.1294 68.5166 15.176 68.6014 15.1869C68.7309 15.1778 68.8609 15.1023 68.984 14.8692C69.1162 14.6187 69.2178 14.2213 69.2737 13.6552L69.2968 13.4208L70.4179 13.4639L70.407 13.715C70.3901 14.103 70.3394 14.4551 70.2524 14.7693C70.1109 15.3242 69.844 15.7631 69.4383 16.0603C69.0338 16.3566 68.5174 16.4932 67.9111 16.4932H67.9078C67.2448 16.4843 66.6899 16.2788 66.2695 15.8584C65.9844 15.5734 65.7728 15.201 65.6269 14.7515C65.5421 14.8821 65.4479 15.0095 65.3444 15.1337L65.3397 15.1393C64.5387 16.0448 63.4748 16.4932 62.1738 16.4932C61.642 16.4932 61.1474 16.4073 60.6925 16.2324L60.6911 16.2318C60.089 15.9962 59.6224 15.6383 59.3087 15.1518C58.9959 14.6669 58.8477 14.0735 58.8477 13.3867C58.8477 13.1258 58.8738 12.8722 58.9264 12.6263L58.9275 12.6213C59.1551 11.6565 59.8714 10.9518 60.9984 10.4883C62.0718 10.0468 63.5409 9.81244 65.3906 9.77184V8.45629C65.3826 7.6454 65.2166 7.07657 64.9309 6.71076C64.6537 6.35582 64.2361 6.15708 63.6356 6.1416C63.3437 6.14196 63.1107 6.19267 62.9275 6.28259C62.705 6.41515 62.4716 6.75067 62.266 7.38223C62.2176 7.54331 62.1751 7.67171 62.1389 7.76295C62.0297 8.06154 61.87 8.30642 61.6485 8.4764C61.4238 8.64891 61.1545 8.72949 60.8555 8.72949C60.7042 8.72949 60.5536 8.71056 60.4042 8.6732L60.3929 8.67038C60.109 8.58521 59.8749 8.43837 59.7138 8.21818C59.553 7.9985 59.4824 7.72927 59.4824 7.42969C59.4824 7.09625 59.5909 6.77311 59.7911 6.4638L59.7947 6.4583ZM63.3567 11.1636C62.806 11.3014 62.4197 11.528 62.1702 11.826C61.9225 12.1219 61.7891 12.5128 61.7891 13.0205C61.7891 13.2366 61.8045 13.4343 61.8345 13.6142L61.835 13.6173C61.9117 14.1155 62.0697 14.4549 62.2835 14.6687C62.492 14.8773 62.7796 14.9922 63.1748 14.9922C63.3793 14.9922 63.5975 14.9446 63.8314 14.8422C64.5978 14.5097 65.125 13.8379 65.3906 12.7705V10.9327C64.5579 10.9579 63.8815 11.0361 63.3567 11.1636Z" fill="#FEF5E4"/>
<path d="M54.9463 15.3916C55.0602 15.3916 55.1579 15.3997 55.2393 15.416C55.4508 15.4486 55.5566 15.6439 55.5566 16.002H49.1602V15.3916C49.5833 15.3916 49.9007 15.359 50.1123 15.2939C50.5843 15.1637 50.8203 14.7324 50.8203 14V6.1875H49.1602V5.57715H52.9932L53.1152 7.94531C53.3105 7.45703 53.5872 7.01758 53.9453 6.62695C54.7266 5.81315 55.6055 5.40625 56.582 5.40625C56.7611 5.40625 56.9401 5.42253 57.1191 5.45508C57.8841 5.65039 58.2666 6.13053 58.2666 6.89551C58.2666 7.04199 58.2422 7.18848 58.1934 7.33496C57.998 7.87207 57.6156 8.14062 57.0459 8.14062C56.9157 8.14062 56.7936 8.12435 56.6797 8.0918C56.403 7.99414 56.1263 7.70117 55.8496 7.21289C55.6217 6.82227 55.3939 6.62695 55.166 6.62695C54.9544 6.64323 54.7184 6.7653 54.458 6.99316C53.5954 7.75814 53.1641 8.98698 53.1641 10.6797V15.3916H54.9463Z" fill="#FEF5E4"/>
<path fill-rule="evenodd" clip-rule="evenodd" d="M54.1277 6.79801C53.7908 7.16601 53.531 7.57902 53.3474 8.03816L52.8656 7.95818L52.7557 5.82715H49.4102V5.9375H51.0703V14C51.0703 14.3892 51.0082 14.7267 50.8626 14.9928C50.7129 15.2665 50.4821 15.4503 50.1824 15.534C49.9847 15.5942 49.7244 15.6268 49.4102 15.6376V15.752H55.2765C55.2705 15.7332 55.264 15.718 55.2575 15.706C55.2402 15.6741 55.2264 15.667 55.2012 15.6631L55.1902 15.6614C55.1297 15.6493 55.0494 15.6416 54.9463 15.6416H52.9141V10.6797C52.9141 8.94948 53.355 7.6372 54.2921 6.80612L54.2934 6.80502C54.5709 6.56219 54.8569 6.39999 55.1468 6.37769L55.1564 6.37695H55.166C55.3564 6.37695 55.5258 6.45962 55.6705 6.58362C55.8135 6.70618 55.944 6.87846 56.0656 7.08692L56.0671 7.08963C56.3344 7.56133 56.5703 7.78466 56.7561 7.85358C56.8435 7.87776 56.9398 7.89062 57.0459 7.89062C57.2907 7.89062 57.4757 7.83339 57.6164 7.73461C57.7565 7.63624 57.8732 7.48226 57.9572 7.25274C57.9973 7.13146 58.0166 7.01268 58.0166 6.89551C58.0166 6.55535 57.9322 6.30325 57.7842 6.11744C57.6367 5.93235 57.406 5.78775 57.0657 5.69948C56.9041 5.67061 56.7429 5.65625 56.582 5.65625C55.6851 5.65625 54.8692 6.02642 54.1277 6.79801ZM53.765 6.45382C54.5854 5.59922 55.5267 5.15625 56.582 5.15625C56.7763 5.15625 56.9703 5.17392 57.1639 5.20911L57.1725 5.21068L57.181 5.21285C57.6011 5.3201 57.9415 5.51238 58.1753 5.8059C58.4097 6.10023 58.5166 6.47069 58.5166 6.89551C58.5166 7.07029 58.4874 7.24343 58.4305 7.41402L58.4284 7.42043C58.3172 7.72624 58.1454 7.97409 57.9037 8.14381C57.6619 8.31359 57.3707 8.39062 57.0459 8.39062C56.8947 8.39062 56.7494 8.37171 56.611 8.33218L56.6037 8.33008L56.5965 8.32754C56.2303 8.19831 55.9156 7.83597 55.633 7.3377C55.527 7.15618 55.4298 7.03585 55.3451 6.96325C55.2678 6.89702 55.212 6.87938 55.1744 6.8772C55.042 6.89094 54.8597 6.97397 54.6232 7.18078C53.8356 7.87969 53.4141 9.02493 53.4141 10.6797V15.1416H54.9463C55.069 15.1416 55.1822 15.1501 55.2831 15.1699C55.4667 15.1999 55.6095 15.3062 55.6971 15.4678C55.7784 15.6179 55.8066 15.8041 55.8066 16.002V16.252H48.9102V15.1416H49.1602C49.5767 15.1416 49.8638 15.1088 50.0388 15.055L50.0458 15.0528C50.2163 15.0058 50.3383 14.9094 50.424 14.7528C50.5144 14.5876 50.5703 14.3432 50.5703 14V6.4375H48.9102V5.32715H53.2306L53.318 7.02303C53.4497 6.82493 53.5974 6.63657 53.761 6.45802L53.765 6.45382Z" fill="#FEF5E4"/>
<path d="M39.3691 10.75C39.3691 11.2871 39.3936 11.7754 39.4424 12.2148C39.6702 14.4935 40.598 15.6328 42.2256 15.6328C44.0648 15.6003 45.0007 13.9401 45.0332 10.6523C45.0332 10.0176 45.0007 9.43978 44.9355 8.91895C44.6589 6.90072 43.7474 5.8916 42.2012 5.8916C40.4759 6.02181 39.5319 7.64128 39.3691 10.75ZM42.2744 5.28125C43.4788 5.28125 44.5449 5.59863 45.4727 6.2334C46.9049 7.24251 47.6211 8.73177 47.6211 10.7012C47.6211 12.166 47.1735 13.4111 46.2783 14.4365C45.2204 15.641 43.8451 16.2432 42.1523 16.2432C40.9154 16.2432 39.8249 15.8851 38.8809 15.1689C37.4811 14.1273 36.7812 12.6217 36.7812 10.6523C36.7812 9.23633 37.2126 8.04004 38.0752 7.06348C39.1331 5.87533 40.5329 5.28125 42.2744 5.28125Z" fill="#FEF5E4"/>
<path fill-rule="evenodd" clip-rule="evenodd" d="M38.2622 7.22937C37.4438 8.15606 37.0312 9.29175 37.0312 10.6523C37.0312 12.5544 37.7026 13.9805 39.0301 14.9684L39.032 14.9698C39.9305 15.6514 40.9674 15.9932 42.1523 15.9932C43.7775 15.9932 45.0827 15.4187 46.0902 14.2719C46.9423 13.2957 47.3711 12.1104 47.3711 10.7012C47.3711 8.80204 46.6859 7.39467 45.3301 6.43876C44.4473 5.83515 43.4316 5.53125 42.2744 5.53125C40.5968 5.53125 39.2679 6.10014 38.2622 7.22937ZM37.8885 6.89723C38.9987 5.65039 40.4691 5.03125 42.2744 5.03125C43.5254 5.03125 44.6415 5.36179 45.6138 6.02707L45.6167 6.02901L45.6166 6.02903C47.1244 7.09133 47.8711 8.66216 47.8711 10.7012C47.8711 12.2215 47.4048 13.5264 46.4667 14.6009L46.4661 14.6015C45.3578 15.8633 43.9124 16.4932 42.1523 16.4932C40.8638 16.4932 39.72 16.119 38.7307 15.3688C37.2594 14.2735 36.5312 12.6887 36.5312 10.6523C36.5312 9.18109 36.9812 7.92433 37.8878 6.89797L37.8885 6.89723ZM42.1918 5.6416H42.2012C43.0343 5.6416 43.7201 5.91637 44.23 6.48087C44.7323 7.03701 45.0413 7.84943 45.1832 8.88499L45.1836 8.88793L45.1836 8.88794C45.2502 9.42092 45.2832 10.0093 45.2832 10.6523V10.6548H45.2832C45.2668 12.3143 45.0233 13.6015 44.5247 14.486C44.0151 15.3899 43.2421 15.8649 42.23 15.8828L42.2256 15.8829V15.8828C41.3458 15.8828 40.6321 15.5709 40.1152 14.9362C39.6078 14.313 39.3102 13.4034 39.1938 12.2411C39.1438 11.7911 39.1191 11.2939 39.1191 10.75V10.7369L39.1195 10.7369C39.2017 9.16594 39.4821 7.93767 39.9832 7.07796C40.4926 6.20414 41.23 5.71419 42.1824 5.64231L42.1918 5.6416ZM42.2106 6.14162C41.4423 6.20234 40.8481 6.58711 40.4152 7.32976C39.973 8.08843 39.7001 9.22213 39.6191 10.7565C39.6193 11.2837 39.6434 11.7604 39.6909 12.1872L39.6912 12.19L39.6911 12.19C39.8027 13.3057 40.0828 14.1045 40.5029 14.6205C40.9134 15.1245 41.4767 15.3823 42.2234 15.3828C43.0494 15.3676 43.6632 14.9961 44.0891 14.2405C44.5262 13.4651 44.767 12.2788 44.7832 10.6511C44.7832 10.0258 44.7511 9.45941 44.6877 8.95144C44.5529 7.96954 44.2678 7.26875 43.8589 6.81601C43.4591 6.37336 42.9191 6.14364 42.2106 6.14162Z" fill="#FEF5E4"/>
<path d="M26.7715 10.75C26.7715 11.2871 26.7959 11.7754 26.8447 12.2148C27.0726 14.4935 28.0003 15.6328 29.6279 15.6328C31.4671 15.6003 32.403 13.9401 32.4355 10.6523C32.4355 10.0176 32.403 9.43978 32.3379 8.91895C32.0612 6.90072 31.1497 5.8916 29.6035 5.8916C27.8783 6.02181 26.9342 7.64128 26.7715 10.75ZM29.6768 5.28125C30.8812 5.28125 31.9473 5.59863 32.875 6.2334C34.3073 7.24251 35.0234 8.73177 35.0234 10.7012C35.0234 12.166 34.5758 13.4111 33.6807 14.4365C32.6227 15.641 31.2474 16.2432 29.5547 16.2432C28.3177 16.2432 27.2272 15.8851 26.2832 15.1689C24.8835 14.1273 24.1836 12.6217 24.1836 10.6523C24.1836 9.23633 24.6149 8.04004 25.4775 7.06348C26.5355 5.87533 27.9352 5.28125 29.6768 5.28125Z" fill="#FEF5E4"/>
<path fill-rule="evenodd" clip-rule="evenodd" d="M25.6646 7.22937C24.8462 8.15606 24.4336 9.29175 24.4336 10.6523C24.4336 12.5544 25.1049 13.9805 26.4325 14.9684L26.4343 14.9698C27.3328 15.6514 28.3697 15.9932 29.5547 15.9932C31.1799 15.9932 32.485 15.4187 33.4925 14.2719C34.3447 13.2957 34.7734 12.1104 34.7734 10.7012C34.7734 8.80204 34.0883 7.39467 32.7324 6.43876C31.8496 5.83515 30.834 5.53125 29.6768 5.53125C27.9992 5.53125 26.6702 6.10014 25.6646 7.22937ZM25.2908 6.89723C26.401 5.65039 27.8715 5.03125 29.6768 5.03125C30.9278 5.03125 32.0438 5.36179 33.0162 6.02707L33.019 6.02901L33.019 6.02903C34.5268 7.09133 35.2734 8.66216 35.2734 10.7012C35.2734 12.2215 34.8071 13.5264 33.869 14.6009L33.8685 14.6015C32.7602 15.8633 31.3148 16.4932 29.5547 16.4932C28.2661 16.4932 27.1223 16.119 26.133 15.3688C24.6617 14.2735 23.9336 12.6887 23.9336 10.6523C23.9336 9.18109 24.3835 7.92433 25.2902 6.89797L25.2908 6.89723ZM29.5941 5.6416H29.6035C30.4366 5.6416 31.1224 5.91637 31.6323 6.48087C32.1346 7.03701 32.4436 7.84943 32.5856 8.88499L32.586 8.88793L32.586 8.88794C32.6526 9.42092 32.6855 10.0093 32.6855 10.6523V10.6548H32.6855C32.6691 12.3143 32.4257 13.6015 31.927 14.486C31.4175 15.3899 30.6444 15.8649 29.6324 15.8828L29.6279 15.8829V15.8828C28.7481 15.8828 28.0344 15.5709 27.5176 14.9362C27.0101 14.313 26.7125 13.4034 26.5961 12.2411C26.5462 11.7911 26.5215 11.2939 26.5215 10.75V10.7369L26.5218 10.7369C26.6041 9.16594 26.8844 7.93767 27.3856 7.07796C27.8949 6.20414 28.6323 5.71419 29.5847 5.64231L29.5941 5.6416ZM29.613 6.14162C28.8446 6.20234 28.2504 6.58711 27.8175 7.32976C27.3753 8.08843 27.1024 9.22213 27.0215 10.7565C27.0217 11.2837 27.0458 11.7604 27.0932 12.1872L27.0935 12.19L27.0935 12.19C27.2051 13.3057 27.4852 14.1045 27.9053 14.6205C28.3158 15.1245 28.879 15.3823 29.6257 15.3828C30.4517 15.3676 31.0655 14.9961 31.4914 14.2405C31.9286 13.4651 32.1693 12.2788 32.1855 10.6511C32.1855 10.0258 32.1534 9.45941 32.09 8.95144C31.9552 7.96954 31.6702 7.26875 31.2613 6.81601C30.8614 6.37336 30.3214 6.14364 29.613 6.14162Z" fill="#FEF5E4"/>
<path d="M22.1807 12.0713C22.1807 13.0967 21.8145 13.9756 21.082 14.708C20.0241 15.7334 18.5186 16.2461 16.5654 16.2461C14.889 16.2461 13.4323 15.8311 12.1953 15.001C12.1953 15.3102 12.179 15.5381 12.1465 15.6846C12.0651 15.9287 11.821 16.0508 11.4141 16.0508V10.9482H12.2441C12.2767 11.4691 12.3581 11.9574 12.4883 12.4131C13.0254 14.5127 14.3275 15.5625 16.3945 15.5625C16.9642 15.5625 17.4932 15.4567 17.9814 15.2451C19.0231 14.7894 19.5439 13.9919 19.5439 12.8525C19.5439 12.4456 19.4544 12.0713 19.2754 11.7295C18.901 11.0459 17.9977 10.3623 16.5654 9.67871C14.9867 8.94629 14.0752 8.50684 13.8311 8.36035C12.3011 7.48145 11.5361 6.3584 11.5361 4.99121C11.5361 4.06348 11.8698 3.26595 12.5371 2.59863C13.5137 1.60579 14.9134 1.10938 16.7363 1.10938C18.2012 1.10938 19.5521 1.42676 20.7891 2.06152C20.7891 1.91504 20.7972 1.78483 20.8135 1.6709C20.8786 1.37793 21.1309 1.23145 21.5703 1.23145V5.55273H20.7402C20.7402 4.65755 20.5205 3.89258 20.0811 3.25781C19.3812 2.29753 18.3558 1.81738 17.0049 1.81738C16.5329 1.81738 16.0934 1.89062 15.6865 2.03711C14.6937 2.42773 14.1973 3.13574 14.1973 4.16113C14.1973 4.56803 14.2868 4.93424 14.4658 5.25977C14.8239 5.94336 15.7109 6.61068 17.127 7.26172C18.7057 7.99414 19.6253 8.44173 19.8857 8.60449C21.4157 9.49967 22.1807 10.6553 22.1807 12.0713Z" fill="#FEF5E4"/>
<path fill-rule="evenodd" clip-rule="evenodd" d="M16.7363 1.35938C14.9588 1.35938 13.6317 1.84235 12.7153 2.77394L12.7139 2.77542C12.0926 3.39676 11.7861 4.13105 11.7861 4.99121C11.7861 6.24247 12.4773 7.29432 13.9556 8.14358L13.9597 8.14594C14.1893 8.28368 15.0842 8.71595 16.6706 9.45193L16.6731 9.45309C18.1122 10.14 19.0798 10.8519 19.4947 11.6094L19.4969 11.6135C19.6957 11.993 19.7939 12.4075 19.7939 12.8525C19.7939 13.4611 19.6544 13.9951 19.3626 14.4419C19.0708 14.8887 18.6383 15.2306 18.0817 15.4742C17.5598 15.7003 16.9959 15.8125 16.3945 15.8125C15.3178 15.8125 14.4159 15.5383 13.7108 14.9698C13.0075 14.4028 12.525 13.5634 12.2469 12.4784C12.1317 12.0744 12.0539 11.6475 12.0127 11.1982H11.6641V15.7785C11.824 15.7443 11.8819 15.6763 11.9055 15.6162C11.93 15.4959 11.9453 15.2951 11.9453 15.001V14.5321L12.3346 14.7934C13.5254 15.5924 14.9322 15.9961 16.5654 15.9961C18.4745 15.9961 19.909 15.496 20.9066 14.5299C21.5918 13.8441 21.9307 13.029 21.9307 12.0713C21.9307 10.7673 21.2352 9.68372 19.7595 8.82027L19.7532 8.81658C19.5096 8.66433 18.609 8.22488 17.0221 7.48866C15.6003 6.83489 14.6455 6.13931 14.2455 5.37802C14.0451 5.01272 13.9473 4.60515 13.9473 4.16113C13.9473 3.60685 14.082 3.12097 14.3649 2.71756C14.6472 2.31489 15.0637 2.01352 15.595 1.80447L15.6018 1.80179C16.0382 1.64467 16.5066 1.56738 17.0049 1.56738C18.4231 1.56738 19.5292 2.07619 20.2831 3.11057L20.2867 3.11547C20.717 3.73701 20.9468 4.46928 20.9846 5.30273H21.3203V1.50507C21.2593 1.51862 21.2124 1.537 21.177 1.55751C21.1155 1.59323 21.0781 1.64104 21.0595 1.71664C21.0462 1.814 21.0391 1.9286 21.0391 2.06152V2.47081L20.6749 2.28395C19.4752 1.66828 18.1637 1.35938 16.7363 1.35938ZM12.3596 2.42259C13.3964 1.36901 14.8684 0.859375 16.7363 0.859375C18.1053 0.859375 19.3812 1.12993 20.561 1.67267C20.5626 1.66016 20.5642 1.64779 20.566 1.63554L20.5673 1.62604L20.5694 1.61667C20.6166 1.40423 20.7375 1.23455 20.926 1.12511C21.1048 1.02126 21.3271 0.981445 21.5703 0.981445H21.8203V5.80273H20.4902V5.55273C20.4902 4.70125 20.2822 3.98871 19.8772 3.4026C19.2314 2.51803 18.2873 2.06738 17.0049 2.06738C16.5605 2.06738 16.1511 2.13606 15.7746 2.27109C15.3149 2.45255 14.9878 2.70002 14.7743 3.00461C14.5607 3.30921 14.4473 3.69002 14.4473 4.16113C14.4473 4.53002 14.528 4.85412 14.6849 5.13929L14.6873 5.14374C15.0042 5.74868 15.8228 6.38696 17.2314 7.03458C18.7957 7.76031 19.7338 8.21574 20.015 8.39049C21.5972 9.31719 22.4307 10.5442 22.4307 12.0713C22.4307 13.1637 22.0376 14.106 21.2588 14.8848L21.256 14.8875C20.1379 15.9713 18.5617 16.4961 16.5654 16.4961C15.0105 16.4961 13.6297 16.1474 12.4308 15.444C12.4219 15.5581 12.4087 15.6568 12.3905 15.7388L12.3877 15.7514L12.3837 15.7636C12.2498 16.1653 11.8554 16.3008 11.4141 16.3008H11.1641V10.6982H12.479L12.4937 10.9326C12.5252 11.4373 12.6039 11.9076 12.7287 12.3444L12.7306 12.3511C12.9897 13.3641 13.4265 14.0983 14.0246 14.5805C14.6215 15.0618 15.4043 15.3125 16.3945 15.3125C16.9323 15.3125 17.4271 15.2128 17.8817 15.0159C18.3665 14.8037 18.7151 14.5191 18.944 14.1685C19.173 13.8178 19.2939 13.3833 19.2939 12.8525C19.2939 12.4846 19.2136 12.151 19.055 11.8476C18.7205 11.2386 17.8821 10.5843 16.459 9.90491C14.8929 9.17837 13.9661 8.73233 13.7045 8.57599C12.1243 7.66758 11.2861 6.4737 11.2861 4.99121C11.2861 3.99624 11.6468 3.13574 12.3596 2.42259Z" fill="#FEF5E4"/>
</svg>
